<svg xmlns="http://www.w3.org/2000/svg" viewBox="0 0 240 130" role="img" aria-label="Riu Dental Studio">
  <title>Riu</title>
  <!-- Tooth icon (top-right) -->
  <g fill="none" stroke-linecap="round" stroke-linejoin="round" stroke-width="4">
    <!-- Outer tooth outline -->
    <path d="M163 18 C 154 16, 149 24, 150 36 C 151 47, 152 58, 156 70 C 159 80, 168 84, 173 76 C 177 70, 178 58, 180 50 C 182 58, 183 70, 188 76 C 193 84, 202 80, 205 70 C 209 58, 210 47, 211 36 C 212 24, 207 16, 198 18 C 191 19, 186 23, 180 26 C 174 23, 170 19, 163 18 Z"
          stroke="#7d8a90"/>
    <!-- Inner accent curve (teal) -->
    <path d="M186 30 C 189 27, 195 27, 199 32 C 203 38, 202 46, 199 52 C 196 58, 192 56, 190 51 C 188 47, 186 44, 184 49 C 183 53, 180 53, 179 49 C 178 44, 180 35, 186 30 Z"
          stroke="#4fb6ac" stroke-width="4.5"/>
  </g>
  <!-- "riu" wordmark — geometric humanist sans, thin weight -->
  <text x="8" y="118"
        font-family="'Outfit','Inter','Helvetica Neue',-apple-system,system-ui,Arial,sans-serif"
        font-size="124"
        font-weight="300"
        letter-spacing="-3"
        fill="#7d8a90">riu</text>
  <!-- Underline accent under wordmark -->
  <line x1="12" y1="122" x2="148" y2="122" stroke="#7d8a90" stroke-width="3" stroke-linecap="round"/>
</svg>
